<svg xmlns="http://www.w3.org/2000/svg" xmlns:xlink="http://www.w3.org/1999/xlink" width="500" zoomAndPan="magnify" viewBox="0 0 375 374.999991" height="400" preserveAspectRatio="xMidYMid meet" version="1.0"><defs><g/><clipPath id="1ecd0e6169"><path d="M 267 163 L 372 163 L 372 182 L 267 182 Z M 267 163 " clip-rule="nonzero"/></clipPath><clipPath id="da33d48f54"><path d="M 244.429688 147.921875 L 378.363281 114.664062 L 398.785156 196.917969 L 264.851562 230.171875 Z M 244.429688 147.921875 " clip-rule="nonzero"/></clipPath><clipPath id="b1fd974923"><path d="M 378.125 114.726562 L 244.191406 147.980469 L 264.613281 230.230469 L 398.546875 196.976562 Z M 378.125 114.726562 " clip-rule="nonzero"/></clipPath><clipPath id="1d6b6bea32"><path d="M 5 172 L 110 172 L 110 191 L 5 191 Z M 5 172 " clip-rule="nonzero"/></clipPath><clipPath id="f443b07bf0"><path d="M -21.964844 157.355469 L 111.964844 124.097656 L 132.390625 206.351562 L -1.542969 239.605469 Z M -21.964844 157.355469 " clip-rule="nonzero"/></clipPath><clipPath id="3616d3f1ed"><path d="M -1.628906 239.265625 L 132.304688 206.011719 L 111.882812 123.757812 L -22.050781 157.011719 Z M -1.628906 239.265625 " clip-rule="nonzero"/></clipPath></defs><g clip-path="url(#1ecd0e6169)"><g clip-path="url(#da33d48f54)"><g clip-path="url(#b1fd974923)"><path fill="#fffbf8" d="M 267.714844 176.101562 C 267.425781 176.117188 267.171875 176.382812 267.191406 176.703125 C 267.203125 176.992188 267.472656 177.25 267.789062 177.226562 C 272.152344 176.996094 279.789062 177.800781 289.050781 178.785156 C 318.335938 181.902344 363.449219 186.722656 371.140625 165.007812 C 371.160156 164.972656 371.15625 164.945312 371.148438 164.917969 C 371.246094 164.714844 371.253906 164.507812 371.195312 164.289062 C 371.058594 163.734375 370.507812 163.402344 369.957031 163.539062 C 369.40625 163.675781 369.074219 164.226562 369.210938 164.78125 C 369.28125 165.058594 369.488281 165.300781 369.695312 165.425781 C 361.410156 185.351562 317.648438 180.664062 289.058594 177.640625 C 279.761719 176.632812 272.035156 175.820312 267.644531 176.0625 L 267.671875 176.054688 Z M 267.714844 176.101562 " fill-opacity="1" fill-rule="nonzero"/></g></g></g><g clip-path="url(#1d6b6bea32)"><g clip-path="url(#f443b07bf0)"><g clip-path="url(#3616d3f1ed)"><path fill="#fffbf8" d="M 108.78125 177.886719 C 109.070312 177.875 109.328125 177.605469 109.304688 177.289062 C 109.292969 177 109.023438 176.742188 108.707031 176.761719 C 104.34375 176.996094 96.707031 176.191406 87.445312 175.203125 C 58.160156 172.085938 13.046875 167.265625 5.355469 188.984375 C 5.335938 189.019531 5.339844 189.046875 5.347656 189.074219 C 5.25 189.273438 5.246094 189.480469 5.300781 189.703125 C 5.4375 190.253906 5.988281 190.589844 6.539062 190.449219 C 7.089844 190.3125 7.421875 189.761719 7.285156 189.210938 C 7.214844 188.933594 7.007812 188.691406 6.804688 188.566406 C 15.085938 168.636719 58.847656 173.324219 87.4375 176.351562 C 96.734375 177.359375 104.460938 178.167969 108.851562 177.929688 L 108.824219 177.9375 Z M 108.78125 177.886719 " fill-opacity="1" fill-rule="nonzero"/></g></g></g><path stroke-linecap="butt" transform="matrix(0.000000000000000065, 1.054114, -1.05637, 0.000000000000000065, 43.85998, 143.605186)" fill="none" stroke-linejoin="miter" d="M 0.000268453 0.99898 L 73.162308 0.99898 " stroke="#fffbf8" stroke-width="2" stroke-opacity="1" stroke-miterlimit="4"/><path stroke-linecap="butt" transform="matrix(1.055642, 0, 0, 1.05637, 42.161855, 143.60293)" fill="none" stroke-linejoin="miter" d="M -0.00160952 1.000811 L 272.18907 1.000811 " stroke="#fffbf8" stroke-width="2" stroke-opacity="1" stroke-miterlimit="4"/><path stroke-linecap="butt" transform="matrix(1.062684, 0, 0, 1.05637, 42.161855, 218.774736)" fill="none" stroke-linejoin="miter" d="M -0.00159886 1.000876 L 70.592787 1.000876 " stroke="#fffbf8" stroke-width="2" stroke-opacity="1" stroke-miterlimit="4"/><path stroke-linecap="butt" transform="matrix(0.000000000000000065, 1.054114, -1.05637, 0.000000000000000065, 329.690726, 144.661543)" fill="none" stroke-linejoin="miter" d="M -0.00131585 1.001461 L 73.160723 1.001461 " stroke="#fffbf8" stroke-width="2" stroke-opacity="1" stroke-miterlimit="4"/><path stroke-linecap="butt" transform="matrix(1.062449, 0, 0, 1.05637, 254.061403, 219.831122)" fill="none" stroke-linejoin="miter" d="M 0.0010325 0.999268 L 70.596346 0.999268 " stroke="#fffbf8" stroke-width="2" stroke-opacity="1" stroke-miterlimit="4"/><g fill="#fffbf8" fill-opacity="1"><g transform="translate(105.537743, 183.771381)"><g><path d="M 36.328125 -32.761719 C 31.234375 -32.695312 23.496094 -31.574219 16.839844 -29.980469 C 16.90625 -30.25 16.976562 -30.554688 17.042969 -30.792969 C 17.113281 -31.167969 16.875 -31.507812 16.535156 -31.574219 C 16.160156 -31.675781 15.820312 -31.4375 15.753906 -31.101562 C 15.652344 -30.625 15.550781 -30.148438 15.414062 -29.605469 C 9.8125 -28.179688 3.394531 -25.9375 2.546875 -23.085938 C 2.273438 -22.273438 2.375 -21.050781 4.140625 -19.828125 C 4.277344 -19.726562 4.378906 -19.691406 4.515625 -19.691406 C 4.71875 -19.691406 4.921875 -19.792969 5.058594 -19.996094 C 5.261719 -20.269531 5.195312 -20.675781 4.890625 -20.878906 C 3.53125 -21.832031 3.699219 -22.476562 3.769531 -22.714844 C 4.347656 -24.582031 9.097656 -26.550781 15.074219 -28.179688 C 14.429688 -25.464844 13.582031 -22.203125 12.699219 -18.84375 C 11.882812 -15.789062 11.066406 -12.597656 10.289062 -9.472656 C 5.875 -8.285156 2.140625 -7.027344 1.257812 -6.179688 C 1.019531 -5.941406 0.984375 -5.535156 1.257812 -5.261719 C 1.359375 -5.125 1.5625 -5.058594 1.730469 -5.058594 C 1.867188 -5.058594 2.035156 -5.125 2.171875 -5.261719 C 2.648438 -5.703125 5.230469 -6.722656 9.914062 -8.011719 C 8.183594 -0.984375 6.757812 5.636719 6.6875 9.609375 C 6.65625 11.78125 7.199219 13.070312 8.316406 13.546875 C 8.625 13.683594 8.929688 13.714844 9.269531 13.714844 C 12.085938 13.714844 16.535156 9.609375 21.59375 4.683594 C 21.964844 4.3125 22.339844 3.972656 22.644531 3.667969 L 23.222656 3.089844 C 23.359375 2.988281 23.496094 2.816406 23.664062 2.683594 C 23.699219 2.75 23.730469 2.785156 23.765625 2.816406 C 24.070312 3.023438 24.480469 2.953125 24.683594 2.683594 C 26.007812 0.917969 26.515625 0.238281 25.9375 -0.273438 C 25.429688 -0.746094 24.820312 -0.203125 24.171875 0.40625 C 23.664062 0.882812 23.019531 1.492188 22.304688 2.171875 L 21.761719 2.714844 C 21.421875 3.054688 21.050781 3.394531 20.675781 3.734375 C 17.28125 7.0625 10.964844 13.273438 8.828125 12.359375 C 8.113281 12.054688 7.980469 10.695312 8.011719 9.640625 C 8.082031 5.671875 9.574219 -1.257812 11.375 -8.421875 C 12.15625 -8.625 12.96875 -8.863281 13.851562 -9.066406 C 19.726562 -10.558594 25.191406 -11.613281 26.550781 -11.542969 C 26.921875 -11.507812 27.230469 -11.78125 27.230469 -12.15625 C 27.261719 -12.527344 26.992188 -12.832031 26.617188 -12.832031 C 24.988281 -12.9375 17.996094 -11.507812 11.714844 -9.878906 C 12.460938 -12.800781 13.242188 -15.753906 13.953125 -18.503906 C 14.90625 -22.171875 15.820312 -25.667969 16.5 -28.519531 C 23.1875 -30.21875 31.066406 -31.371094 36.363281 -31.4375 C 36.703125 -31.4375 37.007812 -31.746094 37.007812 -32.117188 C 37.007812 -32.457031 36.703125 -32.730469 36.328125 -32.761719 Z M 36.328125 -32.761719 "/></g></g></g><g fill="#fffbf8" fill-opacity="1"><g transform="translate(134.315374, 183.771381)"><g><path d="M 9.980469 -31.8125 C 9.746094 -32.117188 9.40625 -32.253906 9.066406 -32.21875 C 7.128906 -31.878906 5.058594 -24.648438 4.480469 -22.441406 C 2.785156 -15.957031 0.644531 -6.757812 -1.085938 1.492188 C -1.902344 5.398438 -2.546875 8.691406 -2.953125 11.066406 C -3.632812 15.074219 -3.53125 15.582031 -2.886719 15.753906 C -2.816406 15.789062 -2.75 15.789062 -2.683594 15.789062 C -2.070312 15.789062 -1.765625 14.972656 -1.460938 14.089844 C -1.359375 13.75 -1.527344 13.378906 -1.867188 13.273438 C -1.902344 13.242188 -1.933594 13.242188 -1.96875 13.242188 C -1.257812 8.351562 1.664062 -5.875 4.652344 -17.789062 C 4.652344 -17.824219 4.683594 -17.859375 4.71875 -17.890625 C 9.132812 -24.886719 10.863281 -30.453125 9.980469 -31.8125 Z M 5.804688 -22.375 C 7.097656 -27.160156 8.25 -29.46875 8.863281 -30.421875 C 8.726562 -29.164062 7.980469 -26.449219 5.804688 -22.375 Z M 5.804688 -22.375 "/></g></g></g><g fill="#fffbf8" fill-opacity="1"><g transform="translate(139.473623, 183.771381)"><g><path d="M 11.476562 -7.570312 C 11.171875 -7.773438 10.761719 -7.707031 10.558594 -7.402344 C 8.011719 -3.835938 5.941406 -1.597656 3.90625 -0.136719 C 2.886719 0.578125 1.902344 0.714844 1.257812 0.238281 C 0.847656 -0.0664062 -0.40625 -1.425781 1.050781 -6.179688 C 4.347656 -8.894531 6.144531 -11.476562 5.671875 -12.832031 C 5.5 -13.242188 5.09375 -13.511719 4.652344 -13.511719 C 3.292969 -13.480469 1.222656 -11.136719 -0.136719 -6.757812 C -1.800781 -1.359375 -0.441406 0.609375 0.507812 1.289062 C 0.984375 1.664062 1.527344 1.832031 2.140625 1.832031 C 2.917969 1.832031 3.800781 1.527344 4.652344 0.917969 C 6.824219 -0.644531 8.964844 -2.953125 11.613281 -6.65625 C 11.816406 -6.960938 11.746094 -7.367188 11.476562 -7.570312 Z M 4.378906 -12.085938 C 4.242188 -11.542969 3.667969 -10.457031 2.070312 -8.828125 C 2.953125 -10.796875 3.90625 -11.746094 4.378906 -12.085938 Z M 4.378906 -12.085938 "/></g></g></g><g fill="#fffbf8" fill-opacity="1"><g transform="translate(149.348963, 183.771381)"><g><path d="M 13.648438 -7.570312 C 13.34375 -7.742188 12.9375 -7.640625 12.765625 -7.300781 C 11.949219 -5.90625 9.8125 -2.140625 8.589844 -2.273438 C 8.351562 -2.308594 7.671875 -2.648438 6.992188 -5.023438 C 6.519531 -6.6875 5.875 -8.25 4.617188 -8.316406 C 3.699219 -8.386719 2.683594 -7.671875 1.121094 -4.753906 C 1.527344 -6.214844 1.96875 -7.671875 2.308594 -8.863281 C 2.445312 -9.304688 2.546875 -9.675781 2.648438 -10.050781 C 2.75 -10.390625 2.546875 -10.761719 2.207031 -10.863281 C 1.867188 -10.964844 1.492188 -10.761719 1.390625 -10.390625 C 1.289062 -10.050781 1.1875 -9.640625 1.050781 -9.234375 C 0.167969 -6.214844 -1.15625 -1.628906 -1.492188 1.15625 C -1.527344 1.460938 -1.324219 1.765625 -1.019531 1.832031 C -0.949219 1.867188 -0.917969 1.867188 -0.847656 1.867188 C -0.578125 1.867188 -0.339844 1.699219 -0.238281 1.460938 C 2.953125 -6.484375 4.242188 -7.027344 4.550781 -7.027344 C 4.617188 -7.027344 5.09375 -6.890625 5.738281 -4.652344 C 6.417969 -2.308594 7.300781 -1.121094 8.453125 -0.984375 C 10.183594 -0.78125 11.746094 -2.917969 13.886719 -6.65625 C 14.089844 -6.992188 13.953125 -7.367188 13.648438 -7.570312 Z M 13.648438 -7.570312 "/></g></g></g><g fill="#fffbf8" fill-opacity="1"><g transform="translate(161.464075, 183.771381)"><g><path d="M 14.191406 -7.539062 C 13.886719 -7.671875 13.480469 -7.539062 13.34375 -7.230469 C 10.761719 -1.96875 8.828125 -0.304688 7.910156 -0.476562 C 7.539062 -0.542969 6.316406 -1.257812 6.007812 -7.199219 C 6.007812 -7.46875 5.804688 -7.707031 5.566406 -7.773438 C 5.296875 -7.84375 4.992188 -7.773438 4.855469 -7.539062 C 4.652344 -7.300781 4.449219 -7.027344 4.242188 -6.722656 C 3.394531 -5.566406 2.273438 -4.007812 0.917969 -2.546875 C 0.714844 -2.308594 0.542969 -2.171875 0.441406 -2.105469 C 0.203125 -3.292969 1.460938 -7.84375 3.464844 -9.269531 C 4.039062 -9.675781 4.820312 -9.980469 5.875 -8.757812 C 6.109375 -8.488281 6.519531 -8.453125 6.789062 -8.691406 C 7.0625 -8.894531 7.097656 -9.335938 6.890625 -9.609375 C 5.601562 -11.101562 4.378906 -11.066406 3.566406 -10.796875 C 0.949219 -9.878906 -0.816406 -4.855469 -0.882812 -2.546875 C -0.917969 -1.597656 -0.644531 -0.984375 -0.101562 -0.78125 C 0.746094 -0.441406 1.597656 -1.359375 1.867188 -1.664062 C 3.023438 -2.917969 4.074219 -4.277344 4.820312 -5.332031 C 5.195312 -1.460938 6.109375 0.476562 7.640625 0.816406 C 7.773438 0.816406 7.910156 0.847656 8.046875 0.847656 C 10.355469 0.847656 12.832031 -3.191406 14.496094 -6.65625 C 14.667969 -6.992188 14.53125 -7.367188 14.191406 -7.539062 Z M 14.191406 -7.539062 "/></g></g></g><g fill="#fffbf8" fill-opacity="1"><g transform="translate(174.088223, 183.771381)"><g/></g></g><g fill="#fffbf8" fill-opacity="1"><g transform="translate(184.506545, 183.771381)"><g><path d="M 34.222656 8.25 C 33.953125 8.011719 33.542969 8.046875 33.308594 8.351562 C 32.320312 9.539062 31.371094 10.117188 30.421875 10.082031 C 28.113281 10.015625 25.566406 6.417969 22.847656 2.648438 C 20.914062 -0.101562 18.773438 -3.125 16.332031 -5.433594 C 18.164062 -6.042969 19.964844 -6.925781 21.695312 -8.113281 C 24.921875 -10.320312 27.804688 -13.480469 29.878906 -16.976562 C 33 -22.304688 33.714844 -27.601562 31.746094 -30.792969 C 30.691406 -32.527344 28.351562 -34.496094 23.1875 -34.121094 C 15.378906 -33.578125 6.316406 -28.453125 3.054688 -22.679688 C 1.390625 -19.792969 1.257812 -16.875 2.582031 -14.191406 C 2.75 -13.886719 3.125 -13.75 3.464844 -13.921875 C 3.769531 -14.054688 3.90625 -14.464844 3.734375 -14.804688 C 2.582031 -17.078125 2.75 -19.523438 4.175781 -22.035156 C 7.230469 -27.363281 15.957031 -32.320312 23.289062 -32.832031 C 26.855469 -33.070312 29.367188 -32.152344 30.625 -30.113281 C 32.355469 -27.332031 31.644531 -22.542969 28.757812 -17.621094 C 24.886719 -11.101562 19.691406 -7.742188 15.140625 -6.449219 C 14.597656 -6.890625 14.054688 -7.300781 13.480469 -7.640625 C 12.902344 -8.011719 12.324219 -8.316406 11.746094 -8.589844 C 12.085938 -9.878906 12.390625 -11.136719 12.664062 -12.324219 C 14.191406 -18.4375 15.582031 -24.207031 16.363281 -27.703125 C 16.433594 -28.042969 16.230469 -28.382812 15.855469 -28.484375 C 15.515625 -28.554688 15.175781 -28.316406 15.109375 -27.976562 C 14.328125 -24.480469 12.902344 -18.742188 11.40625 -12.628906 C 11.101562 -11.40625 10.832031 -10.21875 10.523438 -9.097656 C 8.589844 -9.8125 6.992188 -9.8125 6.007812 -9.066406 C 5.398438 -8.554688 5.160156 -7.808594 5.398438 -7.0625 C 5.738281 -6.042969 6.960938 -4.921875 9.4375 -4.617188 C 3.972656 17.960938 4.074219 19.386719 5.125 19.761719 C 5.230469 19.792969 5.332031 19.792969 5.398438 19.792969 C 6.042969 19.792969 6.550781 18.910156 7.433594 16.976562 C 7.570312 16.671875 7.433594 16.261719 7.097656 16.128906 C 6.757812 15.992188 6.382812 16.128906 6.214844 16.464844 C 6.144531 16.636719 6.042969 16.839844 5.976562 17.011719 C 6.550781 13.105469 8.691406 3.972656 10.761719 -4.550781 C 12.121094 -4.515625 13.480469 -4.683594 14.871094 -4.992188 C 17.453125 -2.75 19.726562 0.476562 21.796875 3.394531 C 24.820312 7.640625 27.398438 11.304688 30.386719 11.40625 C 30.421875 11.40625 30.453125 11.40625 30.488281 11.40625 C 31.847656 11.40625 33.101562 10.660156 34.324219 9.167969 C 34.5625 8.894531 34.496094 8.488281 34.222656 8.25 Z M 6.65625 -7.46875 C 6.585938 -7.707031 6.621094 -7.875 6.824219 -8.011719 C 7.097656 -8.25 7.46875 -8.351562 7.910156 -8.351562 C 8.589844 -8.351562 9.40625 -8.113281 10.21875 -7.808594 C 10.050781 -7.164062 9.914062 -6.519531 9.746094 -5.90625 C 7.910156 -6.109375 6.859375 -6.824219 6.65625 -7.46875 Z M 11.101562 -5.839844 C 11.203125 -6.316406 11.304688 -6.789062 11.441406 -7.265625 C 11.949219 -7.027344 12.425781 -6.757812 12.800781 -6.519531 C 13.039062 -6.382812 13.273438 -6.246094 13.480469 -6.078125 C 12.664062 -5.941406 11.847656 -5.875 11.101562 -5.839844 Z M 11.101562 -5.839844 "/></g></g></g><g fill="#fffbf8" fill-opacity="1"><g transform="translate(215.761494, 183.771381)"><g><path d="M 12.289062 -7.367188 C 11.984375 -7.605469 11.578125 -7.539062 11.375 -7.265625 C 9.949219 -5.433594 7.605469 -3.90625 5.804688 -4.242188 C 5.839844 -4.480469 5.875 -4.71875 5.875 -4.957031 C 6.109375 -8.792969 4.921875 -9.574219 4.210938 -9.710938 C 3.394531 -9.878906 2.546875 -9.269531 2.140625 -8.25 C 1.96875 -8.316406 1.765625 -8.316406 1.597656 -8.183594 C 0.238281 -7.332031 -0.882812 -5.160156 -0.273438 -2.816406 C 0.136719 -1.425781 1.085938 -0.542969 2.34375 -0.542969 C 3.53125 -0.542969 4.789062 -1.425781 5.433594 -2.988281 C 7.808594 -2.476562 10.660156 -4.242188 12.390625 -6.449219 C 12.628906 -6.757812 12.5625 -7.164062 12.289062 -7.367188 Z M 2.375 -1.832031 C 2.34375 -1.832031 2.34375 -1.832031 2.34375 -1.832031 C 1.492188 -1.867188 1.121094 -2.683594 1.019531 -3.15625 C 0.679688 -4.3125 0.949219 -5.90625 1.902344 -6.789062 C 1.96875 -5.636719 2.613281 -4.378906 4.242188 -3.496094 C 3.769531 -2.410156 2.953125 -1.832031 2.375 -1.832031 Z M 4.582031 -5.023438 C 4.550781 -4.957031 4.550781 -4.890625 4.550781 -4.820312 C 3.257812 -5.671875 3.054688 -6.757812 3.292969 -7.605469 C 3.464844 -8.148438 3.800781 -8.421875 3.972656 -8.421875 C 4.140625 -8.386719 4.71875 -7.742188 4.582031 -5.023438 Z M 4.582031 -5.023438 "/></g></g></g><g fill="#fffbf8" fill-opacity="1"><g transform="translate(226.620974, 183.771381)"><g><path d="M 28.65625 -20.03125 C 28.214844 -20.644531 26.246094 -21.015625 5.160156 -20.539062 C 5.839844 -23.289062 6.449219 -25.769531 6.992188 -27.773438 C 7.097656 -28.144531 6.890625 -28.484375 6.550781 -28.585938 C 6.214844 -28.6875 5.839844 -28.484375 5.738281 -28.144531 C 5.160156 -26.007812 4.515625 -23.425781 3.800781 -20.507812 C 1.933594 -20.472656 -0.101562 -20.4375 -2.308594 -20.371094 C -5.332031 -20.304688 -7.707031 -20.234375 -8.625 -20.234375 C -8.996094 -20.234375 -9.304688 -19.929688 -9.304688 -19.589844 C -9.304688 -19.214844 -8.996094 -18.910156 -8.625 -18.910156 C -7.671875 -18.945312 -5.296875 -18.980469 -2.273438 -19.082031 C -0.679688 -19.113281 1.289062 -19.148438 3.496094 -19.214844 C 2.035156 -13.039062 0.375 -5.636719 -1.121094 1.597656 C -2.207031 6.890625 -3.089844 11.476562 -3.667969 14.835938 C -3.972656 16.601562 -4.175781 17.996094 -4.277344 18.945312 C -4.414062 20.234375 -4.480469 20.980469 -3.835938 21.21875 C -3.734375 21.21875 -3.667969 21.253906 -3.566406 21.253906 C -2.988281 21.253906 -2.683594 20.4375 -2.410156 19.691406 C -2.273438 19.351562 -2.445312 18.980469 -2.785156 18.84375 C -2.851562 18.84375 -2.886719 18.808594 -2.953125 18.808594 C -2.613281 16.160156 -1.597656 10.21875 0.375 0.847656 C 1.832031 -6.246094 3.429688 -13.34375 4.855469 -19.25 C 14.191406 -19.453125 26.3125 -19.625 27.703125 -19.148438 C 27.941406 -18.945312 28.246094 -18.945312 28.519531 -19.113281 C 28.792969 -19.320312 28.859375 -19.726562 28.65625 -20.03125 Z M 28.65625 -20.03125 "/></g></g></g><g fill="#fffbf8" fill-opacity="1"><g transform="translate(231.13445, 183.771381)"><g><path d="M 14.191406 -7.539062 C 13.886719 -7.671875 13.480469 -7.539062 13.34375 -7.230469 C 10.761719 -1.96875 8.828125 -0.304688 7.910156 -0.476562 C 7.539062 -0.542969 6.316406 -1.257812 6.007812 -7.199219 C 6.007812 -7.46875 5.804688 -7.707031 5.566406 -7.773438 C 5.296875 -7.84375 4.992188 -7.773438 4.855469 -7.539062 C 4.652344 -7.300781 4.449219 -7.027344 4.242188 -6.722656 C 3.394531 -5.566406 2.273438 -4.007812 0.917969 -2.546875 C 0.714844 -2.308594 0.542969 -2.171875 0.441406 -2.105469 C 0.203125 -3.292969 1.460938 -7.84375 3.464844 -9.269531 C 4.039062 -9.675781 4.820312 -9.980469 5.875 -8.757812 C 6.109375 -8.488281 6.519531 -8.453125 6.789062 -8.691406 C 7.0625 -8.894531 7.097656 -9.335938 6.890625 -9.609375 C 5.601562 -11.101562 4.378906 -11.066406 3.566406 -10.796875 C 0.949219 -9.878906 -0.816406 -4.855469 -0.882812 -2.546875 C -0.917969 -1.597656 -0.644531 -0.984375 -0.101562 -0.78125 C 0.746094 -0.441406 1.597656 -1.359375 1.867188 -1.664062 C 3.023438 -2.917969 4.074219 -4.277344 4.820312 -5.332031 C 5.195312 -1.460938 6.109375 0.476562 7.640625 0.816406 C 7.773438 0.816406 7.910156 0.847656 8.046875 0.847656 C 10.355469 0.847656 12.832031 -3.191406 14.496094 -6.65625 C 14.667969 -6.992188 14.53125 -7.367188 14.191406 -7.539062 Z M 14.191406 -7.539062 "/></g></g></g><g fill="#fffbf8" fill-opacity="1"><g transform="translate(243.758598, 183.771381)"><g><path d="M 14.90625 -7.671875 C 14.566406 -7.84375 14.15625 -7.707031 14.023438 -7.367188 C 10.117188 0.847656 6.417969 5.058594 5.601562 4.921875 C 5.535156 4.890625 4.347656 3.734375 8.183594 -8.046875 C 8.285156 -8.351562 8.523438 -9.066406 7.980469 -9.4375 C 7.46875 -9.847656 6.890625 -9.472656 5.941406 -8.828125 C 4.921875 -8.183594 3.53125 -7.265625 2.445312 -7.402344 C 5.90625 -13.378906 5.566406 -14.699219 4.789062 -15.210938 C 3.566406 -15.921875 1.800781 -13.851562 0.984375 -12.664062 C -0.679688 -10.082031 -0.644531 -7.742188 1.121094 -6.550781 C 2.917969 -5.296875 5.261719 -6.824219 6.65625 -7.742188 C 6.6875 -7.773438 6.6875 -7.773438 6.722656 -7.808594 C 5.398438 -3.632812 4.550781 -0.339844 4.242188 1.933594 C 3.871094 4.449219 4.140625 5.773438 5.09375 6.144531 C 5.261719 6.179688 5.398438 6.214844 5.566406 6.214844 C 8.285156 6.214844 13.003906 -2.140625 15.210938 -6.789062 C 15.347656 -7.128906 15.210938 -7.539062 14.90625 -7.671875 Z M 1.1875 -10.015625 C 1.664062 -11.847656 3.257812 -13.546875 3.972656 -13.953125 C 3.90625 -13.410156 3.53125 -11.882812 1.359375 -8.113281 C 1.121094 -8.488281 0.949219 -9.066406 1.1875 -10.015625 Z M 1.1875 -10.015625 "/></g></g></g><g fill="#fffbf8" fill-opacity="1"><g transform="translate(257.299011, 183.771381)"><g><path d="M 9.914062 -7.707031 C 9.609375 -7.910156 9.234375 -7.808594 9.03125 -7.503906 C 6.757812 -3.835938 2.953125 -0.375 1.800781 -0.847656 C 1.664062 -0.917969 0.578125 -1.5625 2.070312 -7.300781 C 2.140625 -7.671875 1.933594 -8.011719 1.597656 -8.113281 C 1.222656 -8.183594 0.882812 -7.980469 0.78125 -7.640625 C -0.441406 -2.851562 -0.273438 -0.304688 1.257812 0.339844 C 1.492188 0.441406 1.730469 0.476562 1.96875 0.476562 C 4.515625 0.476562 8.421875 -4.074219 10.152344 -6.824219 C 10.320312 -7.128906 10.21875 -7.539062 9.914062 -7.707031 Z M 1.902344 -10.457031 C 3.632812 -10.355469 3.597656 -12.527344 2.207031 -12.054688 C 1.492188 -11.847656 0.578125 -10.523438 1.902344 -10.457031 Z M 1.902344 -10.457031 "/></g></g></g><g fill="#ff3131" fill-opacity="1"><g transform="translate(122.898483, 224.645405)"><g><path d="M 10.230469 -7.664062 L 8.371094 -7.664062 L 7.472656 -2.378906 L 5.972656 -7.664062 L 4.316406 -7.664062 L 2.816406 -2.378906 L 1.914062 -7.664062 L 0.0546875 -7.664062 L 1.542969 0 L 3.550781 0 L 5.148438 -5.375 L 6.738281 0 L 8.742188 0 Z M 10.230469 -7.664062 "/></g></g></g><g fill="#ff3131" fill-opacity="1"><g transform="translate(136.668278, 224.645405)"><g><path d="M 5.117188 -1.53125 L 2.367188 -1.53125 L 2.367188 -3.078125 L 5.003906 -3.078125 L 5.003906 -4.609375 L 2.367188 -4.609375 L 2.367188 -6.128906 L 5.117188 -6.128906 L 5.117188 -7.664062 L 0.675781 -7.664062 L 0.675781 0 L 5.117188 0 Z M 5.117188 -1.53125 "/></g></g></g><g fill="#ff3131" fill-opacity="1"><g transform="translate(145.942042, 224.645405)"><g><path d="M 4.371094 -2.242188 C 4.371094 -1.734375 3.945312 -1.320312 3.4375 -1.320312 L 2.367188 -1.320312 L 2.367188 -3.167969 L 3.4375 -3.167969 C 3.945312 -3.167969 4.371094 -2.738281 4.371094 -2.242188 Z M 3.84375 -5.441406 C 3.84375 -4.957031 3.4375 -4.550781 2.953125 -4.550781 L 2.367188 -4.550781 L 2.367188 -6.332031 L 2.953125 -6.332031 C 3.4375 -6.332031 3.84375 -5.9375 3.84375 -5.441406 Z M 6.097656 -2.199219 C 6.097656 -3.234375 5.398438 -3.921875 4.542969 -4.125 C 5.117188 -4.382812 5.453125 -4.96875 5.453125 -5.746094 C 5.453125 -6.792969 4.621094 -7.664062 3.3125 -7.664062 L 0.675781 -7.664062 L 0.675781 0 L 3.773438 0 C 5.238281 0 6.097656 -0.878906 6.097656 -2.199219 Z M 6.097656 -2.199219 "/></g></g></g><g fill="#ff3131" fill-opacity="1"><g transform="translate(155.632729, 224.645405)"><g/></g></g><g fill="#ff3131" fill-opacity="1"><g transform="translate(161.931663, 224.645405)"><g><path d="M 2.34375 -1.554688 L 2.34375 -6.097656 L 2.851562 -6.097656 C 4.15625 -6.097656 5.035156 -5.105469 5.035156 -3.832031 C 5.035156 -2.558594 4.148438 -1.554688 2.851562 -1.554688 Z M 0.675781 -7.664062 L 0.675781 0 L 2.953125 0 C 5.128906 0 6.761719 -1.667969 6.761719 -3.832031 C 6.761719 -5.996094 5.117188 -7.664062 2.953125 -7.664062 Z M 0.675781 -7.664062 "/></g></g></g><g fill="#ff3131" fill-opacity="1"><g transform="translate(172.568888, 224.645405)"><g><path d="M 5.117188 -1.53125 L 2.367188 -1.53125 L 2.367188 -3.078125 L 5.003906 -3.078125 L 5.003906 -4.609375 L 2.367188 -4.609375 L 2.367188 -6.128906 L 5.117188 -6.128906 L 5.117188 -7.664062 L 0.675781 -7.664062 L 0.675781 0 L 5.117188 0 Z M 5.117188 -1.53125 "/></g></g></g><g fill="#ff3131" fill-opacity="1"><g transform="translate(181.842652, 224.645405)"><g><path d="M 7.707031 -7.664062 L 5.882812 -7.664062 L 4.292969 -3.359375 L 3.875 -2.152344 L 3.460938 -3.359375 L 1.882812 -7.664062 L 0.0546875 -7.664062 L 3.15625 0 L 4.609375 0 Z M 7.707031 -7.664062 "/></g></g></g><g fill="#ff3131" fill-opacity="1"><g transform="translate(193.088356, 224.645405)"><g><path d="M 5.117188 -1.53125 L 2.367188 -1.53125 L 2.367188 -3.078125 L 5.003906 -3.078125 L 5.003906 -4.609375 L 2.367188 -4.609375 L 2.367188 -6.128906 L 5.117188 -6.128906 L 5.117188 -7.664062 L 0.675781 -7.664062 L 0.675781 0 L 5.117188 0 Z M 5.117188 -1.53125 "/></g></g></g><g fill="#ff3131" fill-opacity="1"><g transform="translate(202.362119, 224.645405)"><g><path d="M 0.675781 0 L 5.117188 0 L 5.117188 -1.53125 L 2.367188 -1.53125 L 2.367188 -7.664062 L 0.675781 -7.664062 Z M 0.675781 0 "/></g></g></g><g fill="#ff3131" fill-opacity="1"><g transform="translate(211.354176, 224.645405)"><g><path d="M 6.59375 -3.84375 C 6.59375 -2.660156 5.519531 -1.578125 4.339844 -1.578125 C 3.15625 -1.578125 2.085938 -2.660156 2.085938 -3.84375 C 2.085938 -5.027344 3.15625 -6.097656 4.339844 -6.097656 C 5.519531 -6.097656 6.59375 -5.027344 6.59375 -3.84375 Z M 8.28125 -3.832031 C 8.28125 -5.949219 6.457031 -7.773438 4.339844 -7.773438 C 2.21875 -7.773438 0.394531 -5.949219 0.394531 -3.832031 C 0.394531 -1.710938 2.21875 0.113281 4.339844 0.113281 C 6.457031 0.113281 8.28125 -1.710938 8.28125 -3.832031 Z M 8.28125 -3.832031 "/></g></g></g><g fill="#ff3131" fill-opacity="1"><g transform="translate(223.512617, 224.645405)"><g><path d="M 2.367188 -2.738281 L 3.550781 -2.738281 C 4.789062 -2.738281 5.894531 -3.652344 5.894531 -5.207031 C 5.894531 -6.660156 4.789062 -7.664062 3.550781 -7.664062 L 0.675781 -7.664062 L 0.675781 0 L 2.367188 0 Z M 3.269531 -6.332031 C 3.761719 -6.332031 4.28125 -5.90625 4.28125 -5.207031 C 4.28125 -4.472656 3.761719 -4.066406 3.269531 -4.066406 L 2.367188 -4.066406 L 2.367188 -6.332031 Z M 3.269531 -6.332031 "/></g></g></g><g fill="#ff3131" fill-opacity="1"><g transform="translate(233.056812, 224.645405)"><g><path d="M 5.117188 -1.53125 L 2.367188 -1.53125 L 2.367188 -3.078125 L 5.003906 -3.078125 L 5.003906 -4.609375 L 2.367188 -4.609375 L 2.367188 -6.128906 L 5.117188 -6.128906 L 5.117188 -7.664062 L 0.675781 -7.664062 L 0.675781 0 L 5.117188 0 Z M 5.117188 -1.53125 "/></g></g></g><g fill="#ff3131" fill-opacity="1"><g transform="translate(242.330576, 224.645405)"><g><path d="M 2.367188 -2.738281 L 2.378906 -2.738281 L 4.203125 0 L 6.34375 0 L 4.148438 -2.816406 C 5.117188 -3.054688 5.894531 -3.910156 5.894531 -5.207031 C 5.894531 -6.660156 4.789062 -7.664062 3.550781 -7.664062 L 0.675781 -7.664062 L 0.675781 0 L 2.367188 0 Z M 3.269531 -6.332031 C 3.761719 -6.332031 4.28125 -5.90625 4.28125 -5.207031 C 4.28125 -4.472656 3.761719 -4.066406 3.269531 -4.066406 L 2.367188 -4.066406 L 2.367188 -6.332031 Z M 3.269531 -6.332031 "/></g></g></g></svg>